<?xml version="1.0" encoding="UTF-8"?>
<svg id="Layer_2" data-name="Layer 2" xmlns="http://www.w3.org/2000/svg" viewBox="0 0 342.8 407.62">
  <defs>
    <style>
      .cls-1 {
        fill: #459b45;
      }

      .cls-1, .cls-2, .cls-3, .cls-4 {
        stroke-width: 0px;
      }

      .cls-2 {
        fill: #fff;
      }

      .cls-3 {
        fill: #78e3f4;
      }

      .cls-4 {
        fill: #e5790e;
      }
    </style>
  </defs>
  <g id="Layer_1-2" data-name="Layer 1">
    <g>
      <circle class="cls-2" cx="169.46" cy="152.5" r="152.5"/>
      <g>
        <g>
          <polygon class="cls-2" points="282.82 365.05 278.71 367.13 276.02 366.24 274.58 363.38 275.46 360.69 281.42 357.67 282.44 357.46 284.04 357.55 285.02 357.88 291.5 362.11 292.08 364.88 290.32 367.57 287.55 368.15 282.82 365.05"/>
          <polygon class="cls-4" points="277.81 365.34 282.95 362.74 288.65 366.47 290.41 363.79 283.93 359.55 282.33 359.46 276.36 362.47 277.81 365.34"/>
          <polygon class="cls-2" points="299.56 382.33 297.67 380.22 297.79 378.12 295.36 379.35 292.67 378.47 291.22 375.6 292.11 372.91 294.54 371.69 291.7 369.82 291.12 367.06 292.88 364.37 295.64 363.79 303.71 369.07 304.41 369.84 305.13 371.28 305.34 372.29 304.88 380.62 302.77 382.51 299.56 382.33"/>
          <polygon class="cls-4" points="292.79 368.15 298.53 371.91 293.01 374.7 294.46 377.57 299.98 374.78 299.67 380.33 302.88 380.51 303.34 372.18 302.62 370.74 294.55 365.46 292.79 368.15"/>
          <polygon class="cls-2" points="279.73 391.53 277.85 389.42 278.16 383.72 273.69 380.8 273.11 378.03 274.87 375.35 277.64 374.77 282.11 377.68 287.76 374.82 290.45 375.71 291.9 378.57 291.01 381.26 285.37 384.12 285.05 389.82 282.94 391.71 279.73 391.53"/>
          <polygon class="cls-4" points="288.67 376.61 281.98 379.99 276.54 376.44 274.79 379.13 280.23 382.67 279.84 389.53 283.05 389.71 283.43 382.85 290.11 379.48 288.67 376.61"/>
          <polygon class="cls-2" points="292.55 400.25 291.1 397.39 291.98 394.7 297.01 392.16 297.4 385.22 299.51 383.33 302.71 383.51 304.6 385.62 304.09 394.64 303.77 395.62 302.89 396.97 302.12 397.66 295.23 401.13 292.55 400.25"/>
          <polygon class="cls-4" points="299.39 385.33 298.94 393.42 292.88 396.48 294.33 399.35 301.22 395.87 302.1 394.53 302.6 385.51 299.39 385.33"/>
          <polygon class="cls-2" points="279.64 407.53 278.66 407.2 269.97 401.52 269.39 398.75 271.15 396.06 273.92 395.48 277.38 397.75 277.57 394.41 279.68 392.53 282.88 392.71 284.77 394.82 284.58 398.15 287.64 396.61 290.33 397.49 291.77 400.36 290.89 403.04 282.26 407.41 281.24 407.62 279.64 407.53"/>
          <polygon class="cls-4" points="288.54 398.39 282.39 401.5 282.77 394.71 279.56 394.53 279.18 401.32 272.82 397.16 271.06 399.85 279.75 405.53 281.36 405.62 289.99 401.26 288.54 398.39"/>
          <polygon class="cls-2" points="260.32 396.03 259.63 395.26 258.91 393.82 258.69 392.81 259.16 384.48 261.27 382.59 264.48 382.77 266.36 384.88 266.01 391.13 270.13 393.83 270.71 396.6 268.95 399.28 266.18 399.86 260.32 396.03"/>
          <polygon class="cls-4" points="269.03 395.5 263.95 392.18 264.36 384.77 261.16 384.59 260.69 392.92 261.42 394.36 267.27 398.19 269.03 395.5"/>
          <polygon class="cls-2" points="261.32 381.59 259.44 379.48 259.94 370.46 260.27 369.48 261.14 368.13 261.92 367.44 271.47 362.62 274.15 363.5 275.6 366.37 274.72 369.05 270.69 371.09 273.83 373.13 274.41 375.9 272.65 378.59 269.89 379.17 266.79 377.15 266.64 379.88 264.53 381.77 261.32 381.59"/>
          <path class="cls-4" d="M264.64,379.77l.35-6.18,5.99,3.91,1.76-2.69-6.04-3.94,7.12-3.6-1.45-2.87-9.55,4.82-.88,1.34-.5,9.02,3.21.18ZM265.09,371.68l.12-.06-.12.19v-.13Z"/>
        </g>
        <polygon class="cls-2" points="24.29 405.49 22.29 403.49 22.29 389.82 11.82 380.66 11.82 403.49 9.82 405.49 2 405.49 0 403.49 0 360.07 2 358.07 2.59 358.07 3.9 358.56 22.29 374.47 22.29 360.87 24.29 358.87 32.11 358.87 34.11 360.87 34.11 403.49 32.11 405.49 24.29 405.49"/>
        <path class="cls-4" d="M2,360.07h.59l21.7,18.77v-17.97h7.82v42.61h-7.82v-14.57l-14.47-12.66v27.23H2v-43.41Z"/>
        <path class="cls-2" d="M72.05,405.49l-1.82-1.17-2.64-5.81h-16.16l-2.81,5.84-1.8,1.13h-8.59l-1.8-2.87,21-43.48,1.8-1.13h.59l1.8,1.13,21,43.48-1.8,2.87h-8.76ZM62.29,387.03l-2.77-6.04-2.77,6.04h5.53Z"/>
        <path class="cls-4" d="M59.23,360.01h.59l21,43.48h-8.76l-3.18-6.98h-18.7l-3.35,6.98h-8.59l21-43.48ZM65.4,389.03l-5.88-12.85-5.88,12.85h11.76Z"/>
        <polygon class="cls-2" points="97.4 406.35 95.59 405.21 74.83 361.74 76.64 358.87 85.63 358.87 87.45 360.04 97.86 382.68 108.16 360.04 109.98 358.87 118.75 358.87 120.55 361.74 99.79 405.21 97.99 406.35 97.4 406.35"/>
        <path class="cls-4" d="M76.64,360.87h9l12.23,26.62,12.12-26.62h8.76l-20.76,43.48h-.59l-20.76-43.48Z"/>
        <polygon class="cls-2" points="124.86 405.49 122.86 403.49 122.86 360.87 124.86 358.87 132.69 358.87 134.69 360.87 134.69 403.49 132.69 405.49 124.86 405.49"/>
        <path class="cls-4" d="M124.86,360.87h7.82v42.61h-7.82v-42.61Z"/>
        <path class="cls-2" d="M165.5,406.16c-4.97,0-9.4-1-13.16-2.98-3.81-2-6.82-4.84-8.94-8.44-2.12-3.59-3.19-7.84-3.19-12.62s1.08-9.1,3.22-12.69c2.15-3.61,5.24-6.44,9.18-8.39,3.87-1.92,8.46-2.9,13.65-2.9,1.22,0,2.64.11,4.24.33,1.65.23,2.93.5,3.92.83l1.37,1.9v7.72l-2.51,1.93c-.99-.26-2.12-.46-3.35-.59-1.26-.14-2.49-.2-3.67-.2-2.94,0-5.5.51-7.6,1.53-2.06.99-3.6,2.34-4.69,4.13-1.09,1.77-1.64,3.93-1.64,6.42,0,3.95,1.13,6.95,3.47,9.17,2.36,2.25,5.54,3.34,9.71,3.34.5,0,.99-.02,1.47-.05v-15.62l2-2h7.82l2,2v23.65l-1.4,1.91c-3.44,1.09-7.44,1.64-11.9,1.64Z"/>
        <path class="cls-4" d="M176.8,402.62c-3.25,1.03-7.02,1.54-11.29,1.54-4.67,0-8.74-.92-12.23-2.75-3.49-1.83-6.2-4.39-8.15-7.69-1.94-3.29-2.91-7.16-2.91-11.61s.98-8.38,2.94-11.67c1.96-3.29,4.74-5.84,8.35-7.63,3.61-1.79,7.86-2.69,12.76-2.69,1.14,0,2.46.1,3.97.31,1.51.21,2.7.45,3.56.74v7.72c-1.1-.29-2.31-.5-3.65-.65-1.33-.14-2.63-.22-3.88-.22-3.26,0-6.08.58-8.47,1.73-2.39,1.15-4.23,2.78-5.53,4.88s-1.94,4.59-1.94,7.47c0,4.49,1.36,8.03,4.09,10.62,2.72,2.59,6.42,3.89,11.09,3.89,1.22,0,2.37-.08,3.47-.25v-17.41h7.82v23.65Z"/>
        <path class="cls-2" d="M215.85,405.49l-1.82-1.17-2.64-5.81h-16.16l-2.81,5.84-1.8,1.13h-8.59l-1.8-2.87,21-43.48,1.8-1.13h.59l1.8,1.13,21,43.48-1.8,2.87h-8.76ZM206.09,387.03l-2.77-6.04-2.77,6.04h5.53Z"/>
        <path class="cls-4" d="M203.03,360.01h.59l21,43.48h-8.76l-3.18-6.98h-18.7l-3.35,6.98h-8.59l21-43.48ZM209.2,389.03l-5.88-12.85-5.88,12.85h11.76Z"/>
        <polygon class="cls-2" points="235.2 405.49 233.2 403.49 233.2 370.53 223.91 370.53 221.91 368.53 221.91 360.87 223.91 358.87 254.31 358.87 256.31 360.87 256.31 368.53 254.31 370.53 245.02 370.53 245.02 403.49 243.02 405.49 235.2 405.49"/>
        <path class="cls-4" d="M235.2,368.53h-11.29v-7.66h30.41v7.66h-11.29v34.95h-7.82v-34.95Z"/>
        <path class="cls-2" d="M332.36,405.49l-1.87-1.3-5.51-14.76-5.09,1.63v12.44l-2,2h-7.82l-2-2v-42.61l2-2h16c4.79,0,8.59,1.19,11.29,3.55,2.78,2.43,4.18,5.83,4.18,10.12,0,5.05-2,9.15-5.96,12.21l7.23,17.99-1.86,2.75h-8.59ZM319.89,379.17l2.75-.77c3.37-.96,4.89-1.91,5.58-2.52.81-.73,1.19-1.69,1.19-3.02,0-.76-.23-1.26-.78-1.66-.7-.52-1.81-.78-3.28-.78h-5.47v8.76Z"/>
        <path class="cls-4" d="M310.07,360.87h16c4.31,0,7.64,1.02,9.97,3.06,2.33,2.04,3.5,4.91,3.5,8.61,0,4.9-2.14,8.73-6.41,11.49l7.82,19.45h-8.59l-6.18-16.55-8.29,2.66v13.9h-7.82v-42.61ZM323.18,380.33c3.02-.86,5.15-1.85,6.38-2.96s1.85-2.61,1.85-4.51c0-1.4-.53-2.49-1.59-3.27-1.06-.78-2.55-1.17-4.47-1.17h-7.47v13.4l5.29-1.48Z"/>
      </g>
      <g>
        <path class="cls-2" d="M7.92,347.76l-2-2v-26.9l2-2h8.91c3.22,0,5.78.73,7.6,2.16,1.97,1.55,2.97,3.77,2.97,6.58,0,1.37-.32,2.69-.95,3.95,2.45,1.89,3.73,4.57,3.73,7.87s-1,5.85-2.96,7.67c-1.92,1.78-4.65,2.68-8.1,2.68H7.92ZM18.36,339.04c2.71,0,2.71-.94,2.71-1.63,0-.53-.14-.96-.45-1.34-.26-.33-.63-.62-1.09-.87l-4.67,1.55v2.29h3.5ZM14.86,328.12l1.57-.49c1.12-.35,1.54-.7,1.67-.83.11-.12.23-.3.23-.73,0-.19-.03-.28-.04-.3,0,0,0,0,0,0-.04,0-.45-.19-1.6-.19h-1.82v2.54Z"/>
        <path class="cls-1" d="M7.92,318.86h8.91c2.77,0,4.89.58,6.37,1.73,1.47,1.16,2.21,2.83,2.21,5.01,0,1.61-.57,3.13-1.71,4.56,3,1.53,4.49,3.95,4.49,7.25,0,2.7-.77,4.77-2.32,6.2-1.55,1.43-3.79,2.14-6.74,2.14H7.92v-26.9ZM17.02,329.54c1.16-.36,2-.82,2.52-1.36.52-.55.78-1.25.78-2.11s-.29-1.52-.87-1.91c-.58-.39-1.5-.58-2.77-.58h-3.82v7.25l4.16-1.29ZM23.07,337.42c0-.99-.3-1.85-.89-2.59-.59-.74-1.44-1.33-2.53-1.77l-6.79,2.26v5.73h5.5c3.14,0,4.71-1.21,4.71-3.63Z"/>
        <path class="cls-2" d="M46.83,347.76l-1.87-1.3-3.23-8.66-2.03.65v7.31l-2,2h-4.94l-2-2v-26.9l2-2h10.1c3.21,0,5.77.82,7.61,2.42,1.92,1.68,2.89,4.01,2.89,6.94,0,3.19-1.24,5.9-3.62,7.93l4.36,10.85-1.86,2.75h-5.42ZM39.7,329.44l.8-.22c2.09-.6,2.92-1.15,3.23-1.43.24-.21.51-.56.51-1.36,0-.32-.09-.38-.19-.46-.18-.13-.62-.35-1.63-.35h-2.71v3.82Z"/>
        <path class="cls-1" d="M32.76,318.86h10.1c2.72,0,4.82.64,6.29,1.93,1.47,1.29,2.21,3.1,2.21,5.44,0,3.09-1.35,5.51-4.05,7.25l4.94,12.28h-5.42l-3.9-10.45-5.24,1.68v8.77h-4.94v-26.9ZM41.04,331.14c1.91-.55,3.25-1.17,4.03-1.87.78-.7,1.17-1.65,1.17-2.85,0-.88-.33-1.57-1-2.07-.67-.49-1.61-.74-2.82-.74h-4.71v8.46l3.34-.94Z"/>
        <path class="cls-2" d="M69.41,348.46c-3.04,0-5.79-.7-8.16-2.09-2.37-1.39-4.26-3.33-5.59-5.78-1.32-2.41-1.99-5.2-1.99-8.29s.67-5.91,1.99-8.31c1.34-2.43,3.22-4.37,5.59-5.75,2.37-1.38,5.11-2.09,8.16-2.09s5.79.7,8.16,2.09c2.38,1.39,4.25,3.33,5.59,5.75,1.32,2.41,1.99,5.21,1.99,8.31s-.67,5.87-1.99,8.29c-1.33,2.44-3.21,4.39-5.59,5.78-2.37,1.38-5.11,2.09-8.16,2.09ZM69.41,325.15c-1.33,0-2.45.29-3.44.88-1,.6-1.75,1.39-2.31,2.44-.57,1.07-.86,2.35-.86,3.83s.28,2.72.86,3.82c.56,1.06,1.32,1.86,2.31,2.46.99.6,2.12.89,3.44.89s2.48-.29,3.46-.88c.98-.6,1.73-1.4,2.3-2.46.57-1.08.86-2.37.86-3.82s-.29-2.77-.86-3.83c-.56-1.05-1.31-1.85-2.3-2.45-.98-.59-2.11-.88-3.46-.88Z"/>
        <path class="cls-1" d="M57.42,339.64c-1.16-2.13-1.74-4.57-1.74-7.33s.58-5.23,1.74-7.35c1.16-2.12,2.78-3.78,4.85-4.99,2.07-1.21,4.45-1.81,7.15-1.81s5.08.6,7.15,1.81c2.07,1.21,3.68,2.87,4.84,4.99,1.16,2.12,1.75,4.57,1.75,7.35s-.58,5.2-1.75,7.33c-1.16,2.13-2.78,3.8-4.84,5.01-2.07,1.21-4.45,1.81-7.15,1.81s-5.08-.6-7.15-1.81c-2.07-1.21-3.68-2.88-4.85-5.01ZM76.93,337.07c.73-1.38,1.09-2.96,1.09-4.76s-.37-3.41-1.09-4.78c-.73-1.36-1.74-2.44-3.03-3.22-1.29-.78-2.78-1.17-4.49-1.17s-3.17.39-4.47,1.17c-1.3.78-2.32,1.85-3.04,3.22-.73,1.36-1.1,2.96-1.1,4.78s.37,3.38,1.1,4.76c.73,1.38,1.74,2.46,3.04,3.24,1.3.78,2.79,1.17,4.47,1.17s3.21-.39,4.49-1.17c1.29-.78,2.3-1.86,3.03-3.24Z"/>
        <path class="cls-2" d="M105.13,347.76l-1.82-1.17-1.47-3.23h-9.26l-1.57,3.27-1.8,1.13h-5.42l-1.8-2.87,13.25-27.45,1.8-1.13h.37l1.8,1.13,13.25,27.45-1.8,2.87h-5.53ZM97.81,334.64l-.6-1.3-.6,1.3h1.19Z"/>
        <path class="cls-1" d="M97.03,318.32h.37l13.25,27.45h-5.53l-2.01-4.41h-11.81l-2.12,4.41h-5.42l13.25-27.45ZM100.93,336.64l-3.71-8.11-3.71,8.11h7.42Z"/>
        <path class="cls-2" d="M114.52,347.76l-2-2v-26.9l2-2h7.76c4.99,0,8.96,1.37,11.81,4.08,2.88,2.73,4.34,6.56,4.34,11.37s-1.46,8.6-4.33,11.35c-2.85,2.72-6.83,4.1-11.82,4.1h-7.76ZM122.95,338.93c1.37,0,2.49-.26,3.44-.81.92-.53,1.62-1.25,2.12-2.2.52-.99.79-2.2.79-3.61s-.27-2.62-.79-3.61c-.5-.95-1.2-1.67-2.12-2.2-.95-.54-2.08-.81-3.44-.81h-1.49v13.23h1.49Z"/>
        <path class="cls-1" d="M114.52,318.86h7.76c4.48,0,7.96,1.18,10.43,3.53,2.47,2.35,3.71,5.66,3.71,9.92s-1.24,7.54-3.71,9.9c-2.48,2.37-5.95,3.55-10.43,3.55h-7.76v-26.9ZM122.95,340.93c1.71,0,3.19-.36,4.44-1.07s2.21-1.72,2.9-3c.68-1.29,1.02-2.8,1.02-4.54s-.34-3.25-1.02-4.54c-.68-1.29-1.65-2.29-2.9-3s-2.73-1.07-4.44-1.07h-3.49v17.23h3.49Z"/>
        <path class="cls-2" d="M141.7,347.76l-2-2v-26.9l2-2h8.91c3.22,0,5.78.73,7.6,2.16,1.97,1.55,2.97,3.77,2.97,6.58,0,1.37-.32,2.69-.95,3.95,2.45,1.89,3.73,4.57,3.73,7.87s-1,5.85-2.96,7.67c-1.92,1.78-4.65,2.68-8.1,2.68h-11.21ZM152.13,339.04c2.71,0,2.71-.94,2.71-1.63,0-.53-.14-.96-.45-1.34-.26-.33-.63-.62-1.09-.87l-4.67,1.55v2.29h3.5ZM148.63,328.12l1.57-.49c1.12-.35,1.54-.7,1.67-.83.11-.12.23-.29.23-.72,0-.19-.03-.28-.04-.3,0,0,0,0,0,0-.04,0-.45-.19-1.6-.19h-1.82v2.54Z"/>
        <path class="cls-1" d="M141.7,318.86h8.91c2.77,0,4.9.58,6.37,1.73,1.47,1.16,2.21,2.83,2.21,5.01,0,1.61-.57,3.13-1.71,4.56,2.99,1.53,4.49,3.95,4.49,7.25,0,2.7-.77,4.77-2.32,6.2-1.55,1.43-3.79,2.14-6.74,2.14h-11.21v-26.9ZM150.79,329.54c1.16-.36,2-.82,2.53-1.36.52-.55.78-1.25.78-2.11s-.29-1.52-.87-1.91-1.5-.58-2.77-.58h-3.82v7.25l4.16-1.29ZM156.84,337.42c0-.99-.3-1.85-.89-2.59-.59-.74-1.44-1.33-2.52-1.77l-6.8,2.26v5.73h5.5c3.14,0,4.71-1.21,4.71-3.63Z"/>
        <polygon class="cls-2" points="166.54 347.76 164.54 345.76 164.54 318.86 166.54 316.86 183.28 316.86 185.28 318.86 185.28 323.7 183.28 325.7 173.47 325.7 173.47 326.53 178.53 326.53 180.53 328.53 180.53 333.36 178.53 335.36 173.47 335.36 173.47 338.93 183.43 338.93 185.43 340.93 185.43 345.76 183.43 347.76 166.54 347.76"/>
        <path class="cls-1" d="M166.54,318.86h16.75v4.83h-11.81v4.83h7.05v4.83h-7.05v7.56h11.96v4.83h-16.89v-26.9Z"/>
        <polygon class="cls-2" points="202.4 347.76 200.4 345.76 200.4 337.47 195.27 332.98 195.27 345.76 193.27 347.76 188.33 347.76 186.33 345.76 186.33 318.36 188.33 316.36 188.7 316.36 190.01 316.84 200.4 325.83 200.4 318.86 202.4 316.86 207.34 316.86 209.34 318.86 209.34 345.76 207.34 347.76 202.4 347.76"/>
        <path class="cls-1" d="M188.33,318.36h.37l13.7,11.85v-11.34h4.94v26.9h-4.94v-9.2l-9.13-7.99v17.19h-4.94v-27.41Z"/>
        <polygon class="cls-2" points="219.04 347.76 217.04 345.76 217.04 325.7 211.91 325.7 209.91 323.7 209.91 318.86 211.91 316.86 231.1 316.86 233.1 318.86 233.1 323.7 231.1 325.7 225.97 325.7 225.97 345.76 223.97 347.76 219.04 347.76"/>
        <path class="cls-1" d="M219.04,323.7h-7.13v-4.83h19.2v4.83h-7.13v22.07h-4.94v-22.07Z"/>
        <path class="cls-2" d="M243.95,347.76l-2-2v-26.9l2-2h8.99c3.6,0,6.49.87,8.57,2.58,2.2,1.81,3.31,4.33,3.31,7.49,0,2.08-.45,3.95-1.35,5.54-.9,1.59-2.3,2.98-4.17,4.13-1.72,1.06-3.98,2.02-6.71,2.84l-1.7.51v5.8l-2,2h-4.94ZM250.89,330.69c2.36-.69,3.46-1.37,3.98-1.82.56-.49.82-1.03.82-1.75,0-.62-.22-.84-.42-.99-.31-.24-.97-.52-2.33-.52h-2.05v5.07Z"/>
        <path class="cls-1" d="M243.95,318.86h8.99c3.14,0,5.58.71,7.3,2.12,1.72,1.42,2.58,3.4,2.58,5.95,0,1.74-.37,3.26-1.09,4.56-.73,1.3-1.89,2.44-3.47,3.41s-3.66,1.85-6.24,2.63l-3.12.94v7.29h-4.94v-26.9ZM251.26,332.66c2.28-.65,3.92-1.41,4.92-2.28,1-.87,1.5-1.96,1.5-3.25,0-1.12-.41-1.98-1.23-2.59-.82-.61-1.99-.92-3.53-.92h-4.05v9.75l2.38-.7Z"/>
        <path class="cls-2" d="M282.89,347.76l-1.82-1.17-1.47-3.23h-9.26l-1.57,3.27-1.8,1.13h-5.42l-1.8-2.87,13.25-27.45,1.8-1.13h.37l1.8,1.13,13.25,27.45-1.8,2.87h-5.53ZM275.58,334.64l-.6-1.3-.6,1.3h1.2Z"/>
        <path class="cls-1" d="M274.8,318.32h.37l13.25,27.45h-5.53l-2-4.41h-11.81l-2.12,4.41h-5.42l13.25-27.45ZM278.7,336.64l-3.71-8.11-3.71,8.11h7.43Z"/>
        <path class="cls-2" d="M306.36,347.76l-1.87-1.3-3.23-8.66-2.03.65v7.31l-2,2h-4.94l-2-2v-26.9l2-2h10.1c3.21,0,5.77.82,7.61,2.42,1.92,1.68,2.89,4.01,2.89,6.94,0,3.19-1.24,5.9-3.62,7.93l4.36,10.85-1.86,2.75h-5.42ZM299.23,329.44l.8-.22c2.09-.6,2.92-1.15,3.23-1.43.24-.21.51-.56.51-1.36,0-.32-.09-.38-.19-.46-.18-.13-.62-.35-1.63-.35h-2.72v3.82Z"/>
        <path class="cls-1" d="M292.29,318.86h10.1c2.72,0,4.82.64,6.29,1.93,1.47,1.29,2.21,3.1,2.21,5.44,0,3.09-1.35,5.51-4.05,7.25l4.94,12.28h-5.42l-3.9-10.45-5.24,1.68v8.77h-4.94v-26.9ZM300.57,331.14c1.91-.55,3.25-1.17,4.03-1.87.78-.7,1.17-1.65,1.17-2.85,0-.88-.33-1.57-1-2.07-.67-.49-1.61-.74-2.82-.74h-4.72v8.46l3.34-.94Z"/>
        <polygon class="cls-2" points="331.38 347.76 329.57 346.61 324.55 335.82 323.14 337.35 323.14 345.76 321.14 347.76 316.2 347.76 314.2 345.76 314.2 318.86 316.2 316.86 321.14 316.86 323.14 318.86 323.14 324.74 329.31 317.56 330.83 316.86 336.84 316.86 338.84 318.86 338.84 319.13 338.36 320.44 331.08 328.88 338.76 344.9 336.95 347.76 331.38 347.76"/>
        <path class="cls-1" d="M316.2,318.86h4.94v11.27l9.69-11.27h6.01v.27l-8.13,9.43,8.24,17.19h-5.57l-6.27-13.49-3.97,4.29v9.2h-4.94v-26.9Z"/>
      </g>
      <g>
        <path class="cls-3" d="M193.27,160.44c45.21.35,50.19,15.56,38.36,26.45-26.24,24.16-21.17,39.11-7.94,44.97,20.64,9.14,44.31,17.51,51.79,20.27,24.47-26.04,39.48-61.08,39.48-99.63,0-80.36-65.14-145.5-145.5-145.5S23.96,72.14,23.96,152.5c0,8.87.8,17.56,2.32,26,16.26-3.11,110.18-18.5,166.99-18.06Z"/>
        <path class="cls-1" d="M138.37,258.98c3.97-22.49,33.07-51.59,33.07-51.59,0,0,34.03-34.88-2.01-35.39,0,0-70.97,0-141,14,9,70,78.39,112,141.03,112,.29,0,.58,0,.87-.01-13.16-7.82-34.74-23.25-31.96-39.01Z"/>
        <path class="cls-4" d="M236.67,121.95c4.83-6.64,7.52-14.95,7.02-23.9-1.04-18.49-15.92-33.6-34.4-34.86-21.67-1.49-39.7,15.65-39.7,36.99,0,8.42,2.81,16.18,7.53,22.4,4.29,5.64,8.14,11.6,11.93,17.59l17.62,27.92,25.49-39.66c1.42-2.21,2.97-4.33,4.52-6.46Z"/>
        <ellipse class="cls-2" cx="206.96" cy="100.5" rx="13" ry="13.5"/>
        <path class="cls-1" d="M312.46,181s-7,39-36.98,71.13l-30.02-11.13c-.86-.33-11.39-4.66-12.27-4.94-4.95-1.58-21.73-6.06-20.23-21.56,0,0,1.5-10.5,12.56-21.56,13.95-13.94,13.95-16.14,8.22-23.31-5.29-6.63-22.29-8.63-22.29-8.63,0,0,58.5,2.5,101,20Z"/>
      </g>
    </g>
  </g>
</svg>