<svg width="200" height="200" viewBox="0 0 200 200" fill="none" xmlns="http://www.w3.org/2000/svg">
<g clip-path="url(#clip0_12_75)">
<path d="M100 200C155.228 200 200 155.228 200 100C200 44.7715 155.228 0 100 0C44.7715 0 0 44.7715 0 100C0 155.228 44.7715 200 100 200Z" fill="#DE6900"/>
<path fill-rule="evenodd" clip-rule="evenodd" d="M102.168 149.018C109.947 140.24 136 109.087 136 85.5594C136 76.1285 132.207 67.0838 125.456 60.4151C118.705 53.7464 109.548 50 100 50C90.4522 50 81.2955 53.7464 74.5442 60.4151C67.7928 67.0838 64 76.1285 64 85.5594C64 109.087 90.0527 140.24 97.8321 149.018C98.9956 150.331 101.004 150.331 102.168 149.018ZM100 110.846C114.202 110.846 125.714 99.4954 125.714 85.4936C125.714 71.4917 114.202 60.141 100 60.141C85.7985 60.141 74.2858 71.4917 74.2858 85.4936C74.2858 99.4954 85.7985 110.846 100 110.846Z" fill="white" stroke="white" stroke-width="6" stroke-linecap="round" stroke-linejoin="round"/>
</g>
<defs>
<clipPath id="clip0_12_75">
<rect width="200" height="200" fill="white"/>
</clipPath>
</defs>
</svg>
