<svg width="200" height="200" viewBox="0 0 200 200" fill="none" xmlns="http://www.w3.org/2000/svg">
<g clip-path="url(#clip0_12_85)">
<path d="M100 200C155.228 200 200 155.228 200 100C200 44.7715 155.228 0 100 0C44.7715 0 0 44.7715 0 100C0 155.228 44.7715 200 100 200Z" fill="#DE6900"/>
<path fill-rule="evenodd" clip-rule="evenodd" d="M55 65.8C55 59.8353 59.8353 55 65.8 55H134.2C140.165 55 145 59.8353 145 65.8V108.515L137.485 101C132.799 96.3137 125.201 96.3137 120.515 101L108 113.515L92.4852 98C87.799 93.3137 80.201 93.3137 75.5148 98L55 118.515V65.8ZM109 89C115.627 89 121 83.6274 121 77C121 70.3726 115.627 65 109 65C102.373 65 97 70.3726 97 77C97 83.6274 102.373 89 109 89Z" fill="white"/>
<path d="M129 109.485L145 125.485V128.132L144.901 135.669C144.388 139.441 141.928 142.593 138.566 144.081L116.485 122L129 109.485Z" fill="white"/>
<path d="M84 106.485L55.0679 135.417C55.6727 140.809 60.2469 145 65.8 145H122.515L84 106.485Z" fill="white"/>
</g>
<defs>
<clipPath id="clip0_12_85">
<rect width="200" height="200" fill="white"/>
</clipPath>
</defs>
</svg>
