<svg width="10" height="26" viewBox="0 0 10 26" fill="none" xmlns="http://www.w3.org/2000/svg">
<path d="M8.3955 11.718C8.3955 12.7626 8.108 14.389 7.53275 16.5968C6.9575 18.781 6.66975 20.2055 6.66975 20.8703C6.66975 21.5353 6.79625 21.8675 7.0495 21.8675C7.3025 21.8675 7.76275 21.7488 8.43 21.5115L8.74075 21.369L9.362 23.1495C8.5795 23.7668 7.60175 24.313 6.42825 24.7878C5.27775 25.2625 4.23072 25.5 3.28732 25.5C2.3439 25.5 1.59607 25.227 1.04385 24.681C0.514625 24.1348 0.25 23.3513 0.25 22.3305C0.25 21.2858 0.526125 19.707 1.07835 17.594C1.6536 15.4572 1.94123 14.104 1.94123 13.5343C1.94123 12.6558 1.6421 11.8248 1.04385 11.0413L0.767725 10.6496L0.871275 10.0441C2.06777 9.6643 4.3918 9.47435 7.84325 9.47435C8.2115 9.9017 8.3955 10.6496 8.3955 11.718ZM5.807 6.69658C4.77145 6.69658 3.9546 6.41167 3.35635 5.84188C2.7811 5.27208 2.49347 4.54795 2.49347 3.66953C2.49347 2.76733 2.85013 2.01948 3.56343 1.42593C4.29975 0.80865 5.18575 0.5 6.221 0.5C7.2565 0.5 8.062 0.7493 8.63725 1.24788C9.2125 1.74645 9.5 2.44683 9.5 3.349C9.5 4.2512 9.14325 5.03467 8.43 5.69942C7.73975 6.3642 6.86525 6.69658 5.807 6.69658Z" fill="white"/>
</svg>
