<svg width="50" height="50" viewBox="0 0 50 50" fill="none" xmlns="http://www.w3.org/2000/svg">
<g clip-path="url(#clip0_1_41)">
<path d="M25 50C38.8071 50 50 38.8071 50 25C50 11.1929 38.8071 0 25 0C11.1929 0 0 11.1929 0 25C0 38.8071 11.1929 50 25 50Z" fill="#FF7A00"/>
<path fill-rule="evenodd" clip-rule="evenodd" d="M25.4767 37.2837C27.3362 35.1987 34 27.313 34 21.374C34 19.0205 33.0518 16.7633 31.364 15.0991C29.6763 13.4349 27.387 12.5 25 12.5C22.613 12.5 20.3239 13.4349 18.636 15.0991C16.9482 16.7633 16 19.0205 16 21.374C16 27.313 22.6638 35.1987 24.5233 37.2837C24.7804 37.572 25.2195 37.572 25.4767 37.2837ZM27.1605 17.9084L25.6015 14.7999C25.3555 14.3092 24.6445 14.3092 24.3985 14.7999L22.8396 17.9084C22.7419 18.1033 22.553 18.2384 22.3346 18.2696L18.8489 18.7681C18.2987 18.8468 18.079 19.5122 18.4771 19.8942L20.9993 22.3139C21.1574 22.4656 21.2296 22.6841 21.1923 22.8982L20.5968 26.315C20.5029 26.8543 21.078 27.2655 21.5702 27.0107L24.6879 25.3978C24.8833 25.2965 25.1167 25.2965 25.3123 25.3978L28.4298 27.0107C28.922 27.2655 29.4972 26.8543 29.4032 26.315L28.8078 22.8982C28.7705 22.6841 28.8425 22.4656 29.0007 22.3139L31.523 19.8942C31.921 19.5122 31.7013 18.8468 31.1513 18.7681L27.6655 18.2696C27.447 18.2384 27.258 18.1033 27.1605 17.9084Z" fill="white" stroke="white" stroke-width="2" stroke-linecap="round" stroke-linejoin="round"/>
</g>
<defs>
<clipPath id="clip0_1_41">
<rect width="50" height="50" fill="white"/>
</clipPath>
</defs>
</svg>
