<svg width="50" height="50" viewBox="0 0 50 50" fill="none" xmlns="http://www.w3.org/2000/svg">
<g clip-path="url(#clip0_1_46)">
<path d="M25 50C38.8071 50 50 38.8071 50 25C50 11.1929 38.8071 0 25 0C11.1929 0 0 11.1929 0 25C0 38.8071 11.1929 50 25 50Z" fill="#FF4646"/>
<path d="M17.269 27.956C17.269 28.634 17.0981 29.2777 16.7563 29.8872C16.4145 30.491 15.8819 30.981 15.1584 31.357C14.4407 31.733 13.5121 31.921 12.3728 31.921C11.8031 31.921 11.3018 31.8952 10.8689 31.844C10.4416 31.7927 10.0429 31.71 9.67259 31.5962C9.30232 31.4765 8.91779 31.3227 8.51904 31.1347V28.127C9.19694 28.4687 9.88052 28.7307 10.5698 28.913C11.2591 29.0897 11.8829 29.178 12.4411 29.178C12.7772 29.178 13.0507 29.138 13.2615 29.0582C13.4779 28.9785 13.6374 28.8702 13.74 28.7337C13.8425 28.5912 13.8938 28.4287 13.8938 28.2465C13.8938 28.03 13.8169 27.8477 13.6631 27.6997C13.515 27.546 13.2757 27.3865 12.9453 27.2212C12.6149 27.056 12.1791 26.851 11.6379 26.606C11.1765 26.3895 10.7578 26.1672 10.3818 25.9395C10.0115 25.7115 9.69254 25.4525 9.42479 25.1617C9.16274 24.8656 8.96052 24.521 8.81812 24.1279C8.67569 23.7349 8.60449 23.2706 8.60449 22.7351C8.60449 21.9319 8.80102 21.2597 9.19409 20.7185C9.59284 20.1716 10.1454 19.7615 10.8518 19.488C11.5639 19.2146 12.3842 19.0779 13.3127 19.0779C14.1273 19.0779 14.8594 19.169 15.5088 19.3513C16.1639 19.5336 16.7506 19.7415 17.269 19.9751L16.2351 22.5813C15.6996 22.3363 15.1727 22.1426 14.6543 22.0002C14.1359 21.8521 13.6545 21.7781 13.2102 21.7781C12.9197 21.7781 12.6804 21.8151 12.4924 21.8891C12.3101 21.9575 12.1734 22.0515 12.0823 22.1711C11.9968 22.2908 11.9541 22.4275 11.9541 22.5813C11.9541 22.775 12.0281 22.9487 12.1763 23.1025C12.3301 23.2563 12.5836 23.4244 12.9368 23.6067C13.2956 23.7833 13.7827 24.014 14.3979 24.2988C15.0075 24.5723 15.5259 24.8685 15.9531 25.1875C16.3804 25.5007 16.7051 25.8797 16.9272 26.324C17.1551 26.7625 17.269 27.3067 17.269 27.956ZM30.8897 25.4865C30.8897 26.4492 30.7727 27.3265 30.5392 28.1185C30.3115 28.9045 29.9525 29.5825 29.4627 30.152C28.9727 30.7217 28.3432 31.1605 27.5742 31.468C26.8052 31.77 25.8852 31.921 24.8142 31.921C23.766 31.921 22.8574 31.77 22.0884 31.468C21.325 31.1605 20.6955 30.7245 20.1999 30.1607C19.7043 29.591 19.3369 28.9102 19.0976 28.1185C18.8584 27.3265 18.7388 26.4435 18.7388 25.4695C18.7388 24.1706 18.9524 23.0427 19.3796 22.0857C19.8126 21.123 20.4791 20.3795 21.3791 19.8555C22.2792 19.3257 23.4299 19.0608 24.8313 19.0608C26.2555 19.0608 27.4117 19.3257 28.3005 19.8555C29.195 20.3852 29.85 21.1315 30.2657 22.0942C30.6817 23.057 30.8897 24.1877 30.8897 25.4865ZM22.2934 25.4865C22.2934 26.2385 22.3789 26.885 22.5498 27.4262C22.7207 27.9675 22.9913 28.3832 23.3616 28.6737C23.7318 28.9642 24.2161 29.1095 24.8142 29.1095C25.4352 29.1095 25.928 28.9642 26.2925 28.6737C26.6627 28.3832 26.9277 27.9675 27.0872 27.4262C27.2522 26.885 27.335 26.2385 27.335 25.4865C27.335 24.3586 27.147 23.4671 26.771 22.812C26.395 22.1569 25.7485 21.8293 24.8313 21.8293C24.2217 21.8293 23.729 21.9774 23.353 22.2737C22.9827 22.5699 22.7121 22.9914 22.5412 23.5383C22.376 24.0852 22.2934 24.7346 22.2934 25.4865ZM41.3145 27.956C41.3145 28.634 41.1435 29.2777 40.8017 29.8872C40.46 30.491 39.9272 30.981 39.2037 31.357C38.486 31.733 37.5575 31.921 36.4182 31.921C35.8485 31.921 35.3472 31.8952 34.9142 31.844C34.487 31.7927 34.0882 31.71 33.718 31.5962C33.3477 31.4765 32.9632 31.3227 32.5645 31.1347V28.127C33.2422 28.4687 33.926 28.7307 34.6152 28.913C35.3045 29.0897 35.9282 29.178 36.4865 29.178C36.8227 29.178 37.096 29.138 37.307 29.0582C37.5232 28.9785 37.6827 28.8702 37.7855 28.7337C37.888 28.5912 37.9392 28.4287 37.9392 28.2465C37.9392 28.03 37.8622 27.8477 37.7085 27.6997C37.5605 27.546 37.3212 27.3865 36.9907 27.2212C36.6602 27.056 36.2245 26.851 35.6832 26.606C35.222 26.3895 34.8032 26.1672 34.4272 25.9395C34.057 25.7115 33.738 25.4525 33.4702 25.1617C33.2082 24.8656 33.006 24.521 32.8635 24.1279C32.721 23.7349 32.65 23.2706 32.65 22.7351C32.65 21.9319 32.8465 21.2597 33.2395 20.7185C33.6382 20.1716 34.1907 19.7615 34.8972 19.488C35.6092 19.2146 36.4295 19.0779 37.3582 19.0779C38.1727 19.0779 38.9047 19.169 39.5542 19.3513C40.2092 19.5336 40.796 19.7415 41.3145 19.9751L40.2805 22.5813C39.745 22.3363 39.218 22.1426 38.6997 22.0002C38.1812 21.8521 37.7 21.7781 37.2555 21.7781C36.965 21.7781 36.7257 21.8151 36.5377 21.8891C36.3555 21.9575 36.2187 22.0515 36.1277 22.1711C36.0422 22.2908 35.9995 22.4275 35.9995 22.5813C35.9995 22.775 36.0735 22.9487 36.2217 23.1025C36.3755 23.2563 36.629 23.4244 36.9822 23.6067C37.341 23.7833 37.828 24.014 38.4432 24.2988C39.053 24.5723 39.5712 24.8685 39.9985 25.1875C40.4257 25.5007 40.7505 25.8797 40.9727 26.324C41.2005 26.7625 41.3145 27.3067 41.3145 27.956Z" fill="white"/>
</g>
<defs>
<clipPath id="clip0_1_46">
<rect width="50" height="50" fill="white"/>
</clipPath>
</defs>
</svg>
