<svg width="24" height="24" viewBox="0 0 24 24" fill="none" xmlns="http://www.w3.org/2000/svg">
<path d="M12 24C18.6274 24 24 18.6274 24 12C24 5.37258 18.6274 0 12 0C5.37258 0 0 5.37258 0 12C0 18.6274 5.37258 24 12 24Z" fill="#2EC87E"/>
<path fill-rule="evenodd" clip-rule="evenodd" d="M5.86391 6.01378C5.47488 5.9366 5.09878 6.19148 5.02382 6.58307C4.94888 6.97464 5.2035 7.35464 5.59252 7.43182L7.13389 7.73759V15.8398H5.88005C5.28358 15.8398 4.80005 16.3232 4.80005 16.9198C4.80005 17.5162 5.28358 17.9998 5.88005 17.9998H18.0268C18.6232 17.9998 19.1068 17.5162 19.1068 16.9198C19.1068 16.3232 18.6232 15.8398 18.0268 15.8398H17.2284V9.74011L18.3466 9.96192C18.7356 10.0391 19.1117 9.78421 19.1866 9.39263C19.2616 9.00104 19.007 8.62105 18.6179 8.54388L5.86391 6.01378ZM15.7884 9.45444V15.8398H12.4653V12.8812L13.2748 12.9834C13.4721 13.0082 13.6522 12.8686 13.677 12.6713C13.702 12.4741 13.5623 12.294 13.365 12.269L12.1503 12.1157L10.9357 11.9624C10.7384 11.9375 10.5583 12.0772 10.5334 12.2744C10.5085 12.4717 10.6482 12.6518 10.8455 12.6767L11.7453 12.7903V15.8398H8.57389V8.02325L15.7884 9.45444Z" fill="white"/>
</svg>
