<svg width="91" height="141" viewBox="0 0 91 141" fill="none" xmlns="http://www.w3.org/2000/svg">
<path d="M10.7692 141C16.7169 141 21.5385 136.125 21.5385 130.112C21.5385 124.099 16.7169 119.224 10.7692 119.224C4.82155 119.224 0 124.099 0 130.112C0 136.125 4.82155 141 10.7692 141Z" fill="#AD00FF"/>
<path d="M16.3971 130.222C16.8254 129.892 17.4007 130.363 17.1833 130.864L15.7515 134.169C15.6806 134.333 15.5344 134.449 15.3623 134.479L13.2072 134.847V136.112C13.2072 136.406 12.9746 136.645 12.6878 136.645H11.2887C11.0018 136.645 10.7693 136.406 10.7693 136.112V133.349C10.7693 133.088 10.9528 132.866 11.2032 132.823L13.5339 132.425L16.3971 130.222Z" fill="white"/>
<path d="M5.14136 130.222C4.71305 129.892 4.13769 130.363 4.35512 130.864L5.78695 134.169C5.85783 134.333 6.00405 134.449 6.17618 134.479L8.33128 134.847V136.112C8.33128 136.406 8.56382 136.645 8.85066 136.645H10.2498C10.5366 136.645 10.7692 136.406 10.7692 136.112V133.349C10.7692 133.088 10.5856 132.866 10.3352 132.823L8.00452 132.425L5.14136 130.222Z" fill="white"/>
<path fill-rule="evenodd" clip-rule="evenodd" d="M10.3784 123.579C9.74626 123.579 9.27212 124.17 9.3961 124.803L9.54941 125.586L9.05435 125.141C8.5795 124.715 7.84155 124.839 7.52546 125.398L7.13466 126.09C6.81857 126.649 7.08238 127.363 7.68121 127.57L7.94745 127.662L7.68121 127.754C7.08238 127.961 6.81857 128.676 7.13466 129.235L7.52546 129.926C7.84155 130.485 8.5795 130.609 9.05435 130.183L9.54941 129.739L9.3961 130.521C9.27212 131.154 9.74626 131.745 10.3784 131.745H11.16C11.7923 131.745 12.2664 131.154 12.1423 130.521L11.9891 129.739L12.4841 130.183C12.959 130.609 13.6969 130.485 14.013 129.926L14.4038 129.235C14.7199 128.676 14.4561 127.961 13.8573 127.754L13.591 127.662L13.8573 127.57C14.4561 127.363 14.7199 126.649 14.4038 126.09L14.013 125.398C13.6969 124.839 12.959 124.715 12.4841 125.141L11.9891 125.586L12.1423 124.803C12.2664 124.17 11.7923 123.579 11.16 123.579H10.3784ZM10.7692 129.193C11.5499 129.193 12.1828 128.508 12.1828 127.662C12.1828 126.817 11.5499 126.131 10.7692 126.131C9.98861 126.131 9.35578 126.817 9.35578 127.662C9.35578 128.508 9.98861 129.193 10.7692 129.193Z" fill="white"/>
</svg>
